<?xml version="1.0" standalone="no"?>
<!DOCTYPE svg PUBLIC "-//W3C//DTD SVG 20010904//EN"
 "http://www.w3.org/TR/2001/REC-SVG-20010904/DTD/svg10.dtd">
<svg version="1.0" xmlns="http://www.w3.org/2000/svg"
 width="745.000000pt" height="591.000000pt" viewBox="0 0 745.000000 591.000000"
 preserveAspectRatio="xMidYMid meet">
<metadata>
Created by potrace 1.16, written by Peter Selinger 2001-2019
</metadata>
<g transform="translate(0.000000,591.000000) scale(0.100000,-0.100000)"
fill="#000000" stroke="none">
<path d="M2670 4823 c-84 -14 -284 -68 -367 -99 -720 -269 -1229 -905 -1328
-1661 -17 -132 -20 -381 -5 -503 48 -388 201 -748 444 -1051 155 -194 296
-304 541 -425 762 -375 1668 -249 2307 323 42 37 96 91 119 118 l43 50 -54
-51 c-30 -28 -93 -79 -140 -113 -682 -506 -1610 -503 -2290 8 -104 78 -258
228 -340 331 -758 950 -454 2351 629 2899 142 72 230 105 386 147 107 29 128
39 55 27z"/>
</g>
</svg>
